<svg id="Layer_1" data-name="Layer 1" xmlns="http://www.w3.org/2000/svg" viewBox="0 0 1280 300.82"><defs><style>.cls-1{fill:#2ed9c3;}</style></defs><path class="cls-1" d="M564.25,107.52a64.23,64.23,0,0,1-35.76-10.68V296.29h70.29V97.2a62.1,62.1,0,0,1-34.53,10.32M369.77,191c0,24.19-18.41,43.15-41.91,43.15-24,0-42.74-19-42.74-43.15a42.28,42.28,0,0,1,42.74-42.74c23.5,0,41.91,18.77,41.91,42.74m64.35,105.32H504.4V15.11H434.12V165.84a107.25,107.25,0,0,0-28.78-52.76c-20.34-20.34-48-31.55-77.9-31.55s-57.54,11.21-77.88,31.55a106.9,106.9,0,0,0-27.64,48.12c-11.28-47.56-49.44-79.71-96.84-79.71-21.54,0-40.91,7.6-54.79,21.45V15.11H0V296.25H70.29V190.92A42.28,42.28,0,0,1,113,148.19c23.51,0,41.92,18.77,41.92,42.74h0V296.29l.14,0h70.25V231.38a107.17,107.17,0,0,0,24.22,37.68c20.37,20.48,48,31.76,77.89,31.76s57.53-11.28,77.9-31.76a107.94,107.94,0,0,0,28.78-52.93ZM606,42.74C606,18.77,587.55,0,564.05,0a42.28,42.28,0,0,0-42.74,42.74c0,24.19,18.77,43.14,42.74,43.14,23.5,0,41.91-18.95,41.91-43.14M1209.6,191c0,24.19-18.41,43.15-41.91,43.15-24,0-42.74-19-42.74-43.15a42.28,42.28,0,0,1,42.74-42.74c23.5,0,41.91,18.77,41.91,42.74m-217,0c0,24.19-18.42,43.15-41.92,43.15-24,0-42.74-19-42.74-43.15a42.29,42.29,0,0,1,42.74-42.74c23.5,0,41.92,18.77,41.92,42.74m-217.19,0c0,24.19-18.41,43.15-41.92,43.15-24,0-42.73-19-42.73-43.15a42.28,42.28,0,0,1,42.73-42.74c23.51,0,41.92,18.77,41.92,42.74M1280,191c0-63.41-41.17-109.44-97.91-109.44-21.53,0-40.9,7.61-54.79,21.46V15.11H1057V166a107.14,107.14,0,0,0-28.82-52.95c-20.34-20.34-48-31.55-77.89-31.55s-57.55,11.21-77.89,31.55a107.14,107.14,0,0,0-28.83,53c-9.29-50.21-46.65-84.56-95.65-84.56-21.54,0-40.91,7.61-54.79,21.46V15.11H622.87V296.29h70.28v-17c14.22,13.9,33.74,21.53,55.2,21.53,48.79,0,86-34.48,95.25-84.88a107.8,107.8,0,0,0,28.82,53.12c20.36,20.48,48,31.76,77.89,31.76s57.53-11.28,77.9-31.76A107.86,107.86,0,0,0,1057,216v80.34h70.28v-17c14.22,13.9,33.74,21.53,55.21,21.53,56.49,0,97.49-46.2,97.49-109.85"/></svg>